# xmcd
#
# Track frame offsets:
#	150
#	28420
#	63420
#	110679
#	136627
#	154146
#	188796
#	205034
#
# Disc length: 3003 seconds
#
# Revision: 1
# Processed by: cddbd v1.5.2PL0 Copyright (c) Steve Scherf et al.
# Submitted via: audiograbber 1.83.01
#
DISCID=6c0bb908
DTITLE=Various Artist - Blue Note Records Presents: Nubian Blue
DYEAR=2005
DGENRE=Jazz
TTITLE0=Gary Bartz (feat. Syreeta Wright) from the Album - Mizell - Funked Up
TTITLE1=Robert Glasper from the Album - Canvas - Jelly's Da Beener
TTITLE2=Wynton Marsalis from the Album - Live at The House of Tribes - What Is 
TTITLE2=This Thing Called Love
TTITLE3=Greg Osby from the Album - Channel Three - Channel Three
TTITLE4=Raul Midón (feat. Stevie Wonder) from the Album - State of Mind - Expre
TTITLE4=ssions Of Love
TTITLE5=Terence Blanchard from the Album - Flow - Benny's Tune
TTITLE6=Al Green from the Album - Everything's OK - You Are So Beautiful
TTITLE7=Thelonious Monk Quartet (with John Coltrane) from the Album - Theloniou
TTITLE7=s Monk Quartet with John Coltrane at Carnegie Hall - Epistrophy
EXTD=YEAR: 2005
EXTT0=
EXTT1=
EXTT2=
EXTT3=
EXTT4=
EXTT5=
EXTT6=
EXTT7=
PLAYORDER=
